<svg width="25" height="24" viewBox="0 0 25 24" fill="none" xmlns="http://www.w3.org/2000/svg">
  <mask id="mask0_82_55" style="mask-type:alpha" maskUnits="userSpaceOnUse" x="0" y="0" width="25" height="24">
    <rect x="0.5" width="24" height="24" fill="#D9D9D9"/>
  </mask>
  <g mask="url(#mask0_82_55)">
    <path d="M11.1 13.4L9.12501 11.425C8.87501 11.175 8.56668 11.05 8.20001 11.05C7.83335 11.05 7.52501 11.175 7.27501 11.425C7.02501 11.675 6.90001 11.9833 6.90001 12.35C6.90001 12.7167 7.02501 13.025 7.27501 13.275L10.175 16.175C10.4386 16.4417 10.7462 16.575 11.0977 16.575C11.4493 16.575 11.7583 16.4417 12.025 16.175L17.775 10.425C18.025 10.175 18.15 9.86667 18.15 9.5C18.15 9.13333 18.025 8.825 17.775 8.575C17.525 8.325 17.2167 8.2 16.85 8.2C16.4833 8.2 16.175 8.325 15.925 8.575L11.1 13.4ZM12.5 22.8C11.006 22.8 9.60201 22.5165 8.28801 21.9495C6.97401 21.3825 5.83101 20.613 4.85901 19.641C3.88701 18.669 3.11751 17.526 2.55051 16.212C1.98351 14.898 1.70001 13.494 1.70001 12C1.70001 10.5017 1.984 9.09372 2.55199 7.77597C3.11997 6.45821 3.8908 5.31194 4.86449 4.33717C5.83817 3.36239 6.98116 2.59583 8.29346 2.0375C9.60576 1.47917 11.0079 1.2 12.5 1.2C13.9981 1.2 15.406 1.47917 16.7236 2.0375C18.0412 2.59583 19.1875 3.3625 20.1625 4.3375C21.1375 5.3125 21.9042 6.45903 22.4625 7.77708C23.0208 9.09514 23.3 10.5035 23.3 12.0021C23.3 13.5007 23.0208 14.9042 22.4625 16.2125C21.9042 17.5208 21.1376 18.6618 20.1628 19.6355C19.1881 20.6092 18.0418 21.38 16.724 21.948C15.4063 22.516 13.9983 22.8 12.5 22.8Z" fill="#28161C"/>
  </g>
</svg>