<svg width="260" height="68" viewBox="0 0 260 68" fill="none" xmlns="http://www.w3.org/2000/svg">
<g filter="url(#filter0_d_8_55)">
<path fill-rule="evenodd" clip-rule="evenodd" shape-rendering="crispEdges" d="M34.9344 10.6497C35.2004 10.6514 35.4184 10.8611 35.4306 11.1268L36.7077 39.0098L38.1685 13.1335C38.1835 12.8675 38.4044 12.6601 38.6707 12.6617C38.9371 12.6633 39.1554 12.8735 39.1672 13.1396L40.4555 42.3405L41.905 16.8698C41.9201 16.6038 42.1412 16.3964 42.4076 16.3982C42.674 16.4 42.8922 16.6105 42.9037 16.8766L44.2001 46.9089L45.929 16.8695C45.9442 16.6041 46.1645 16.397 46.4303 16.3982C46.6962 16.3994 46.9146 16.6083 46.9276 16.8738L48.1661 42.264L49.6653 13.136C49.679 12.8699 49.899 12.6613 50.1654 12.6617C50.4319 12.6621 50.6512 12.8714 50.6641 13.1375L51.914 38.9686L53.4019 11.123C53.4161 10.8573 53.6359 10.6493 53.902 10.6497C54.168 10.6501 54.3872 10.8588 54.4006 11.1245L55.6642 36.1857L57.1386 11.1203C57.1541 10.8559 57.3732 10.6495 57.6381 10.6497C57.903 10.6499 58.1218 10.8567 58.1369 11.1212L59.4177 33.5353L60.8755 13.1261C60.8942 12.8644 61.1119 12.6617 61.3743 12.6617C61.6366 12.6617 61.8543 12.8644 61.873 13.1261L63.2006 31.7122L64.9011 15.9822C64.9288 15.7257 65.1471 15.5325 65.405 15.536C65.6629 15.5395 65.8759 15.7386 65.8966 15.9957L67.0081 29.7784L68.6415 19.9777C68.6808 19.7423 68.8808 19.5675 69.1193 19.5601C69.3578 19.5528 69.5683 19.715 69.6219 19.9475L71.257 27.0329H77.4701C77.7462 27.0329 77.9701 27.2568 77.9701 27.5329C77.9701 27.8091 77.7462 28.0329 77.4701 28.0329H70.8593C70.6265 28.0329 70.4244 27.8722 70.3721 27.6454L69.2139 22.6264L67.3285 33.9385C67.287 34.1875 67.0664 34.3665 66.8142 34.3558C66.5619 34.3452 66.3572 34.1481 66.3369 33.8965L65.3258 21.3579L63.5959 37.3591C63.5681 37.6165 63.3485 37.81 63.0897 37.8053C62.8309 37.8006 62.6185 37.5992 62.6001 37.341L61.3743 20.1795L59.861 41.365C59.8422 41.628 59.6224 41.8312 59.3587 41.8293C59.095 41.8275 58.8781 41.6211 58.8631 41.3579L57.6305 19.7874L56.1249 45.3827C56.1093 45.6477 55.8892 45.8544 55.6237 45.8533C55.3581 45.8522 55.1398 45.6437 55.1264 45.3785L53.8867 20.7915L52.3885 48.8291C52.3743 49.095 52.1542 49.3031 51.888 49.3024C51.6217 49.3017 51.4027 49.0925 51.3898 48.8266L50.1493 23.1884L48.652 52.2772C48.6383 52.5433 48.4184 52.7519 48.152 52.7515C47.8856 52.7511 47.6663 52.542 47.6533 52.2759L46.3869 26.3158L44.6279 56.879C44.6126 57.145 44.3915 57.3522 44.1252 57.3503C43.8588 57.3484 43.6407 57.138 43.6292 56.8719L42.3356 26.9034L40.8914 52.2799C40.8763 52.5458 40.6554 52.7532 40.389 52.7515C40.1227 52.7498 39.9044 52.5396 39.8927 52.2735L38.6064 23.1178L37.1549 48.8306C37.1399 49.0964 36.9193 49.3038 36.653 49.3024C36.3868 49.301 36.1684 49.0912 36.1562 48.8253L34.869 20.7209L33.4183 45.3827C33.4027 45.6485 33.1814 45.8555 32.9151 45.8533C32.6487 45.8511 32.4309 45.6405 32.4196 45.3745L31.3375 19.8358L29.6812 41.3677C29.661 41.6298 29.4414 41.8315 29.1786 41.8293C28.9158 41.8272 28.6995 41.6219 28.6836 41.3596L27.4259 20.6082L26.2323 37.9146C26.2145 38.1734 26.0018 38.3755 25.7425 38.3802C25.4833 38.3848 25.2634 38.1905 25.2363 37.9326L23.455 21.0107L22.2073 33.9045C22.1827 34.1581 21.9713 34.3527 21.7166 34.3562C21.4618 34.3598 21.245 34.1712 21.2134 33.9183L19.8051 22.6515L18.4559 27.6629C18.3971 27.8812 18.1991 28.0329 17.9731 28.0329H10.5C10.2239 28.0329 10 27.8091 10 27.5329C10 27.2568 10.2239 27.0329 10.5 27.0329H17.5899L19.5022 19.9299C19.5644 19.6991 19.7812 19.5445 20.0197 19.5611C20.2581 19.5776 20.4515 19.7607 20.4812 19.9979L21.6463 29.3191L22.9365 15.9878C22.9612 15.7323 23.1754 15.537 23.432 15.5359C23.6887 15.5349 23.9045 15.7283 23.9314 15.9836L25.6297 32.118L26.9593 12.8399C26.9774 12.5769 27.1966 12.3732 27.4602 12.3743C27.7238 12.3754 27.9412 12.5809 27.9572 12.844L29.2418 34.0407L30.9835 11.3988C31.0038 11.135 31.2261 10.9326 31.4906 10.9372C31.7552 10.9418 31.9704 11.1516 31.9816 11.416L33.0003 35.4585L34.432 11.1203C34.4476 10.8548 34.6684 10.648 34.9344 10.6497Z" fill="#FC0808"/>
</g>
<path fill-rule="evenodd" clip-rule="evenodd" d="M178.212 47.0383C178.551 47.2759 178.633 47.7435 178.396 48.0828L174.507 53.6376V58C174.507 58.4142 174.172 58.75 173.757 58.75C173.343 58.75 173.007 58.4142 173.007 58V53.6376L169.119 48.0828C168.882 47.7435 168.964 47.2759 169.303 47.0383C169.643 46.8008 170.11 46.8833 170.348 47.2226L173.757 52.0934L177.167 47.2226C177.405 46.8833 177.872 46.8008 178.212 47.0383ZM162.062 47.3594C163.921 46.735 166.063 47.38 167.698 49.1567C167.979 49.4614 167.959 49.9359 167.655 50.2165C167.35 50.497 166.876 50.4775 166.595 50.1728C165.273 48.7367 163.725 48.3832 162.539 48.7813C161.368 49.1748 160.308 50.386 160.134 52.5977C160.011 54.1636 160.857 55.5522 162.116 56.2136C163.342 56.8573 165.024 56.839 166.655 55.4219C166.968 55.1503 167.441 55.1835 167.713 55.4962C167.985 55.8089 167.951 56.2826 167.639 56.5543C165.567 58.3541 163.221 58.4883 161.419 57.5417C159.65 56.6128 158.467 54.6684 158.639 52.4803C158.847 49.8207 160.188 47.9884 162.062 47.3594ZM226.445 47.3594C228.304 46.735 230.446 47.38 232.082 49.1567C232.362 49.4614 232.343 49.9359 232.038 50.2165C231.733 50.497 231.259 50.4775 230.978 50.1728C229.656 48.7367 228.108 48.3832 226.922 48.7813C225.751 49.1748 224.691 50.386 224.517 52.5977C224.394 54.1636 225.24 55.5522 226.499 56.2136C227.725 56.8573 229.407 56.839 231.038 55.4219C231.351 55.1503 231.824 55.1835 232.096 55.4962C232.368 55.8089 232.335 56.2826 232.022 56.5543C229.95 58.3541 227.605 58.4883 225.802 57.5417C224.033 56.6128 222.85 54.6684 223.022 52.4803C223.23 49.8207 224.572 47.9884 226.445 47.3594ZM102.099 47.2168C102.425 47.3061 102.651 47.6022 102.651 47.9401V57.7126C102.651 58.1268 102.315 58.4626 101.901 58.4626C101.487 58.4626 101.151 58.1268 101.151 57.7126V50.6769L97.9476 56.083C97.8126 56.3109 97.5673 56.4506 97.3024 56.4506C97.0375 56.4506 96.7922 56.3109 96.6572 56.083L93.4536 50.6769V57.7126C93.4536 58.1268 93.1178 58.4626 92.7036 58.4626C92.2894 58.4626 91.9536 58.1268 91.9536 57.7126V47.9401C91.9536 47.6023 92.1795 47.3061 92.5054 47.2168C92.8312 47.1275 93.1766 47.2671 93.3488 47.5578L97.3024 54.2294L101.256 47.5578C101.428 47.2671 101.774 47.1275 102.099 47.2168ZM194.65 47.2168C194.976 47.3061 195.202 47.6023 195.202 47.9401V57.7126C195.202 58.1268 194.866 58.4626 194.452 58.4626C194.038 58.4626 193.702 58.1268 193.702 57.7126V50.6769L190.499 56.083C190.363 56.3109 190.118 56.4506 189.853 56.4506C189.588 56.4506 189.343 56.3109 189.208 56.083L186.005 50.6769V57.7126C186.005 58.1268 185.669 58.4626 185.255 58.4626C184.84 58.4626 184.505 58.1268 184.505 57.7126V47.9401C184.505 47.6023 184.73 47.3061 185.056 47.2168C185.382 47.1275 185.727 47.2671 185.9 47.5578L189.853 54.2294L193.807 47.5578C193.979 47.2671 194.324 47.1275 194.65 47.2168ZM147.642 47.232C147.943 47.1269 148.278 47.2239 148.477 47.4737L154.9 55.5621V47.9401C154.9 47.5259 155.236 47.1901 155.65 47.1901C156.064 47.1901 156.4 47.5259 156.4 47.9401V57.7126C156.4 58.0316 156.198 58.3157 155.897 58.4207C155.595 58.5258 155.261 58.4288 155.062 58.179L148.639 50.0906V57.7126C148.639 58.1268 148.303 58.4626 147.889 58.4626C147.475 58.4626 147.139 58.1268 147.139 57.7126V47.9401C147.139 47.6211 147.341 47.337 147.642 47.232ZM239.618 47.232C239.92 47.1269 240.254 47.2239 240.453 47.4737L246.876 55.5621V47.9401C246.876 47.5259 247.212 47.1901 247.626 47.1901C248.04 47.1901 248.376 47.5259 248.376 47.9401V57.7126C248.376 58.0316 248.174 58.3157 247.873 58.4207C247.572 58.5258 247.237 58.4288 247.038 58.179L240.615 50.0906V57.7126C240.615 58.1268 240.28 58.4626 239.865 58.4626C239.451 58.4626 239.115 58.1268 239.115 57.7126V47.9401C239.115 47.6211 239.317 47.337 239.618 47.232ZM127.15 48.2102C127.933 47.5768 128.986 47.1901 130.356 47.1901C132.051 47.1901 133.763 48.1903 134.476 49.6167C134.661 49.9871 134.511 50.4376 134.141 50.6229C133.77 50.8081 133.32 50.658 133.135 50.2875C132.698 49.4144 131.535 48.6901 130.356 48.6901C129.284 48.6901 128.576 48.986 128.093 49.3766C127.6 49.775 127.28 50.3215 127.078 50.9134C126.875 51.5065 126.801 52.1129 126.781 52.5807C126.771 52.8123 126.774 53.0041 126.779 53.1355C126.782 53.2011 126.785 53.2513 126.788 53.2834C126.788 53.2952 126.789 53.3046 126.79 53.3114L126.793 53.3295C126.797 53.3537 126.803 53.3921 126.813 53.4427C126.833 53.5441 126.866 53.6933 126.916 53.8741C127.017 54.2386 127.185 54.7165 127.452 55.1871C127.979 56.1177 128.846 56.9626 130.356 56.9626C131.652 56.9626 132.384 56.1332 132.831 55.1126C133.022 54.6755 133.145 54.2314 133.223 53.8638L131.793 53.8638C131.379 53.8638 131.043 53.528 131.043 53.1138C131.043 52.6996 131.379 52.3638 131.793 52.3638L134.093 52.3638C134.292 52.3638 134.483 52.4428 134.623 52.5834C134.764 52.7241 134.843 52.9149 134.843 53.1138V57.4252C134.843 57.8394 134.507 58.1752 134.093 58.1752C133.679 58.1752 133.343 57.8394 133.343 57.4252V57.1071C132.683 57.8684 131.725 58.4626 130.356 58.4626C128.13 58.4626 126.841 57.1517 126.147 55.9266C125.803 55.3194 125.594 54.7194 125.47 54.2756C125.408 54.0522 125.367 53.8645 125.341 53.7301C125.328 53.6629 125.318 53.6087 125.312 53.5697C125.311 53.5609 125.309 53.5529 125.308 53.5456C125.307 53.5368 125.306 53.5292 125.305 53.5228L125.303 53.5084L125.302 53.5036L125.302 53.5017C125.302 53.5014 125.302 53.5003 126.045 53.4012C125.299 53.4797 125.299 53.4793 125.299 53.479L125.299 53.4761L125.298 53.4705L125.297 53.4534C125.295 53.4393 125.294 53.4202 125.292 53.3963C125.288 53.3484 125.284 53.2812 125.28 53.1975C125.273 53.0303 125.27 52.7954 125.282 52.515C125.307 51.959 125.394 51.2 125.659 50.4279C125.923 49.6545 126.376 48.8357 127.15 48.2102ZM126.045 53.4012L125.299 53.479L125.302 53.5003L126.045 53.4012ZM208.293 47.4098C208.434 47.2691 208.625 47.1901 208.824 47.1901L212.273 47.1901C213.835 47.1901 215.037 47.9406 215.829 49.0247C216.606 50.0894 216.991 51.4699 217.01 52.8153C217.03 54.1601 216.687 55.5495 215.912 56.6241C215.12 57.7232 213.894 58.4626 212.273 58.4626L208.824 58.4626C208.409 58.4626 208.074 58.1268 208.074 57.7126V47.9401C208.074 47.7412 208.153 47.5504 208.293 47.4098ZM209.574 48.6901V56.9626L212.273 56.9626C213.381 56.9626 214.167 56.4804 214.695 55.7472C215.241 54.9895 215.527 53.9357 215.511 52.8374C215.494 51.7397 215.178 50.6771 214.617 49.9094C214.071 49.1612 213.297 48.6901 212.273 48.6901L209.574 48.6901ZM82.4008 47.4098C82.5415 47.2691 82.7322 47.1901 82.9312 47.1901L89.2545 47.1901C89.6687 47.1901 90.0045 47.5259 90.0045 47.9401C90.0045 48.3543 89.6687 48.6901 89.2545 48.6901L83.6812 48.6901L83.6812 51.7889H88.1048C88.519 51.7889 88.8548 52.1247 88.8548 52.5389C88.8548 52.9531 88.519 53.2889 88.1048 53.2889H83.6812L83.6812 56.9626L89.2545 56.9626C89.6687 56.9626 90.0045 57.2984 90.0045 57.7126C90.0045 58.1268 89.6687 58.4626 89.2545 58.4626L82.9312 58.4626C82.5169 58.4626 82.1812 58.1268 82.1812 57.7126L82.1812 47.9401C82.1812 47.7412 82.2602 47.5504 82.4008 47.4098ZM105.97 47.4098C106.11 47.2691 106.301 47.1901 106.5 47.1901L112.823 47.1901C113.238 47.1901 113.573 47.5259 113.573 47.9401C113.573 48.3543 113.238 48.6901 112.823 48.6901L107.25 48.6901V51.7889H111.674C112.088 51.7889 112.424 52.1247 112.424 52.5389C112.424 52.9531 112.088 53.2889 111.674 53.2889H107.25V56.9626L112.823 56.9626C113.238 56.9626 113.573 57.2984 113.573 57.7126C113.573 58.1268 113.238 58.4626 112.823 58.4626L106.5 58.4626C106.086 58.4626 105.75 58.1268 105.75 57.7126V47.9401C105.75 47.7412 105.829 47.5504 105.97 47.4098ZM115.742 47.4098C115.883 47.2691 116.074 47.1901 116.273 47.1901L120.296 47.1901C121.236 47.1901 122.032 47.5763 122.575 48.2672C123.102 48.9382 123.346 49.8362 123.346 50.8144C123.346 51.7239 122.987 52.6042 122.463 53.2591C122.184 53.6082 121.829 53.9266 121.421 54.1443L123.247 57.3405C123.453 57.7001 123.328 58.1583 122.968 58.3638C122.608 58.5693 122.15 58.4443 121.945 58.0847L119.861 54.4386H117.023V57.7126C117.023 58.1268 116.687 58.4626 116.273 58.4626C115.858 58.4626 115.523 58.1268 115.523 57.7126V47.9401C115.523 47.7412 115.602 47.5504 115.742 47.4098ZM117.023 52.9386H120.296C120.562 52.9386 120.943 52.758 121.292 52.322C121.63 51.8992 121.846 51.3423 121.846 50.8144C121.846 50.068 121.659 49.5289 121.395 49.1939C121.148 48.8788 120.794 48.6901 120.296 48.6901L117.023 48.6901V52.9386ZM137.586 47.4098C137.727 47.2691 137.918 47.1901 138.117 47.1901L144.44 47.1901C144.854 47.1901 145.19 47.5259 145.19 47.9401C145.19 48.3543 144.854 48.6901 144.44 48.6901L138.867 48.6901V51.7889H143.29C143.705 51.7889 144.04 52.1247 144.04 52.5389C144.04 52.9531 143.705 53.2889 143.29 53.2889H138.867V56.9626L144.44 56.9626C144.854 56.9626 145.19 57.2984 145.19 57.7126C145.19 58.1268 144.854 58.4626 144.44 58.4626L138.117 58.4626C137.703 58.4626 137.367 58.1268 137.367 57.7126V47.9401C137.367 47.7412 137.446 47.5504 137.586 47.4098ZM198.521 47.4098C198.661 47.2691 198.852 47.1901 199.051 47.1901L205.374 47.1901C205.788 47.1901 206.124 47.5259 206.124 47.9401C206.124 48.3543 205.788 48.6901 205.374 48.6901L199.801 48.6901V51.7889H204.225C204.639 51.7889 204.975 52.1247 204.975 52.5389C204.975 52.9531 204.639 53.2889 204.225 53.2889H199.801V56.9626L205.374 56.9626C205.788 56.9626 206.124 57.2984 206.124 57.7126C206.124 58.1268 205.788 58.4626 205.374 58.4626L199.051 58.4626C198.637 58.4626 198.301 58.1268 198.301 57.7126V47.9401C198.301 47.7412 198.38 47.5504 198.521 47.4098ZM251.407 47.4098C251.547 47.2691 251.738 47.1901 251.937 47.1901L258.26 47.1901C258.675 47.1901 259.01 47.5259 259.01 47.9401C259.01 48.3543 258.675 48.6901 258.26 48.6901L252.687 48.6901V51.7889H257.111C257.525 51.7889 257.861 52.1247 257.861 52.5389C257.861 52.9531 257.525 53.2889 257.111 53.2889H252.687V56.9626L258.26 56.9626C258.675 56.9626 259.01 57.2984 259.01 57.7126C259.01 58.1268 258.675 58.4626 258.26 58.4626L251.937 58.4626C251.523 58.4626 251.187 58.1268 251.187 57.7126V47.9401C251.187 47.7412 251.266 47.5504 251.407 47.4098ZM220.32 47.1901C220.735 47.1901 221.07 47.5259 221.07 47.9401V57.7126C221.07 58.1268 220.735 58.4626 220.32 58.4626C219.906 58.4626 219.57 58.1268 219.57 57.7126V47.9401C219.57 47.5259 219.906 47.1901 220.32 47.1901ZM235.841 47.1901C236.256 47.1901 236.591 47.5259 236.591 47.9401V57.7126C236.591 58.1268 236.256 58.4626 235.841 58.4626C235.427 58.4626 235.091 58.1268 235.091 57.7126V47.9401C235.091 47.5259 235.427 47.1901 235.841 47.1901Z" fill="#FC0808"/>
<path d="M89.8293 10.5749H82.3563V43.3413H89.8293V28.9701H101.326V43.3413H108.799V10.5749H101.326V23.7964H89.8293V10.5749Z" fill="#090D0E"/>
<path d="M115.698 10.5749V43.3413H136.392V37.018H123.171V29.5449H135.242V23.2216H123.171V16.8982H136.392V10.5749H115.698Z" fill="#090D0E"/>
<path d="M150.763 10.5749H142.716V43.3413H163.985V37.018H150.763V10.5749Z" fill="#090D0E"/>
<path fill-rule="evenodd" clip-rule="evenodd" d="M169.734 10.5749V43.3413H177.781V32.4192H184.68C190.077 32.4192 194.452 28.0439 194.452 22.6467V20.3473C194.452 14.9501 190.077 10.5749 184.68 10.5749H169.734ZM181.805 26.6707C184.663 26.6707 186.979 24.3543 186.979 21.497C186.979 18.6397 184.663 16.3234 181.805 16.3234H177.781V26.6707H181.805Z" fill="#090D0E"/>
<path d="M197.901 10V43.3413H219.171V36.4431H205.949V29.5449H218.596V22.6467H205.949V16.8982H219.171V10H197.901Z" fill="#FC0808"/>
<path d="M232.967 10H225.494V43.3413H232.967V23.509L238.141 35.8683H246.189L251.362 23.509V43.3413H258.835V10H251.362L242.739 28.9701H241.59L232.967 10Z" fill="#FC0808"/>
<defs>
<filter id="filter0_d_8_55" x="0" y="0.649704" width="87.9701" height="66.7006" filterUnits="userSpaceOnUse" color-interpolation-filters="sRGB">
<feFlood flood-opacity="0" result="BackgroundImageFix"/>
<feColorMatrix in="SourceAlpha" type="matrix" values="0 0 0 0 0 0 0 0 0 0 0 0 0 0 0 0 0 0 127 0" result="hardAlpha"/>
<feOffset/>
<feGaussianBlur stdDeviation="5"/>
<feComposite in2="hardAlpha" operator="out"/>
<feColorMatrix type="matrix" values="0 0 0 0 0.988235 0 0 0 0 0.0313726 0 0 0 0 0.0313726 0 0 0 1 0"/>
<feBlend mode="normal" in2="BackgroundImageFix" result="effect1_dropShadow_8_55"/>
<feBlend mode="normal" in="SourceGraphic" in2="effect1_dropShadow_8_55" result="shape"/>
</filter>
</defs>
</svg>
