<svg width="24" height="24" viewBox="0 0 24 24" fill="none" xmlns="http://www.w3.org/2000/svg">
  <path fill-rule="evenodd" clip-rule="evenodd" d="M15.7563 10.9633C15.7563 15.3613 12.2292 18.9266 7.87817 18.9266C3.52718 18.9266 0 15.3613 0 10.9633C0 6.56529 3.52718 3 7.87817 3C12.2292 3 15.7563 6.56529 15.7563 10.9633ZM12.5076 10.9633C12.5076 13.5213 10.4349 15.595 7.87817 15.595C5.3214 15.595 3.24873 13.5213 3.24873 10.9633C3.24873 8.40528 5.3214 6.33159 7.87817 6.33159C10.4349 6.33159 12.5076 8.40528 12.5076 10.9633Z" fill="#28161C"/>
  <path fill-rule="evenodd" clip-rule="evenodd" d="M17.4945 21.4259L17.489 21.4199C17.262 21.1688 17.1736 20.8308 17.1736 20.4583C17.1736 20.1829 17.233 19.9251 17.3595 19.6932L17.3621 19.6883L17.365 19.6835C17.4846 19.4809 17.6343 19.2868 17.8114 19.1006L17.8119 19.1001L19.9422 16.8713C20.2501 16.5394 20.4515 16.2712 20.5621 16.0637L20.564 16.06L20.5661 16.0564C20.6807 15.8541 20.731 15.665 20.731 15.4853C20.731 15.2542 20.6596 15.1291 20.5547 15.0493C20.4301 14.9546 20.2184 14.884 19.8741 14.884C19.7107 14.884 19.5312 14.9079 19.3343 14.9589L19.3288 14.9604L19.3233 14.9616C19.1373 15.0029 18.9283 15.0809 18.6952 15.2013L18.6868 15.2056L18.6781 15.2095C18.4146 15.3267 18.1428 15.3751 17.8772 15.3147L17.8756 15.3144L17.874 15.314C17.6348 15.257 17.4309 15.1304 17.2671 14.9447L17.2634 14.9405L17.2599 14.9362C17.1104 14.7546 17.014 14.5449 16.9717 14.3124L16.9704 14.3053L16.9695 14.2982C16.9363 14.0546 16.976 13.8171 17.0821 13.593C17.1989 13.3377 17.4023 13.1448 17.6606 13.0055C18.0593 12.7887 18.4731 12.6316 18.9014 12.5354L18.9021 12.5353L18.9028 12.5351C19.3313 12.4408 19.7607 12.3934 20.1909 12.3934C20.8857 12.3934 21.4893 12.4948 21.9889 12.7127C22.4956 12.9302 22.8948 13.2544 23.1694 13.6895C23.4457 14.1192 23.5736 14.6388 23.5736 15.2294C23.5736 15.6036 23.5158 15.9695 23.4005 16.3258C23.2916 16.6871 23.1132 17.0412 22.8708 17.3881C22.6362 17.7353 22.3248 18.0965 21.9414 18.4718C21.9413 18.472 21.9411 18.4721 21.9409 18.4723L21.0988 19.3045H22.7492C23.1013 19.3045 23.4233 19.3951 23.6583 19.6283C23.9011 19.861 24 20.1798 24 20.5315C24 20.8855 23.9 21.2049 23.6612 21.4439C23.4259 21.6792 23.1027 21.7706 22.7492 21.7706H18.5096C18.1127 21.7706 17.7501 21.6817 17.5002 21.4317L17.4945 21.4259Z" fill="#28161C"/>
</svg>
