<svg width="24" height="24" viewBox="0 0 24 24" fill="none" xmlns="http://www.w3.org/2000/svg">
    <path d="M14.8727 0H10.4364C8.76364 0 8.90909 2.90909 10.4364 2.90909H12.1818L9.56363 6.4C9.12727 6.83636 8.98182 8.72727 10.8727 8.72727H15.3818C16.9818 8.72727 16.9818 5.81818 15.3818 5.81818H13.6364L16.4 2.03636C16.6909 1.74545 16.9091 0 14.8727 0Z" fill="#28161C"/>
    <path d="M20.7279 10.1818H16.2915C14.6188 10.1818 14.7643 13.0909 16.2915 13.0909H18.037L15.4188 16.5818C14.9824 17.0182 14.837 18.9091 16.7279 18.9091H21.237C22.837 18.9091 22.837 16 21.237 16H19.4915L22.2552 12.2182C22.5461 11.9273 22.7643 10.1818 20.7279 10.1818Z" fill="#28161C"/>
    <path d="M10.0318 11.6364H3.71069C1.32732 11.6364 1.53457 15.7576 3.71069 15.7576H6.19768L2.46719 20.703C1.84544 21.3212 1.6382 24 4.33244 24H10.7572C13.0369 24 13.0369 19.8788 10.7572 19.8788H8.27017L12.2079 14.5212C12.6224 14.1091 12.9333 11.6364 10.0318 11.6364Z" fill="#28161C"/>
</svg>
