<svg width="25" height="25" viewBox="0 0 25 25" fill="none" xmlns="http://www.w3.org/2000/svg">
  <path d="M12.0223 20.4306C11.4889 20.4306 10.9931 20.2972 10.5348 20.0306C10.0764 19.7639 9.70561 19.3972 9.42228 18.9306C9.23894 18.5972 9.23478 18.2639 9.40978 17.9306C9.58478 17.5972 9.85561 17.4306 10.2223 17.4306C10.4389 17.4306 10.6306 17.4972 10.7973 17.6306C10.9639 17.7639 11.1139 17.9139 11.2473 18.0806C11.3306 18.1972 11.4431 18.2847 11.5848 18.3431C11.7264 18.4014 11.8723 18.4306 12.0223 18.4306C12.3056 18.4306 12.5431 18.3347 12.7348 18.1431C12.9264 17.9514 13.0223 17.7139 13.0223 17.4306C13.0223 17.1472 12.9264 16.9097 12.7348 16.7181C12.5431 16.5264 12.3056 16.4306 12.0223 16.4306H3.52228C3.23894 16.4306 3.00144 16.3347 2.80978 16.1431C2.61811 15.9514 2.52228 15.7139 2.52228 15.4306C2.52228 15.1472 2.61811 14.9097 2.80978 14.7181C3.00144 14.5264 3.23894 14.4306 3.52228 14.4306H12.0223C12.8556 14.4306 13.5639 14.7222 14.1473 15.3056C14.7306 15.8889 15.0223 16.5972 15.0223 17.4306C15.0223 18.2639 14.7306 18.9722 14.1473 19.5556C13.5639 20.1389 12.8556 20.4306 12.0223 20.4306ZM3.52228 10.4306C3.23894 10.4306 3.00144 10.3347 2.80978 10.1431C2.61811 9.95141 2.52228 9.71391 2.52228 9.43057C2.52228 9.14724 2.61811 8.90974 2.80978 8.71807C3.00144 8.52641 3.23894 8.43057 3.52228 8.43057H16.0223C16.4389 8.43057 16.7931 8.28474 17.0848 7.99307C17.3764 7.70141 17.5223 7.34724 17.5223 6.93057C17.5223 6.51391 17.3764 6.15974 17.0848 5.86807C16.7931 5.57641 16.4389 5.43057 16.0223 5.43057C15.7556 5.43057 15.5056 5.49307 15.2723 5.61807C15.0389 5.74307 14.8556 5.92224 14.7223 6.15557C14.6056 6.35557 14.4639 6.53474 14.2973 6.69307C14.1306 6.85141 13.9306 6.93057 13.6973 6.93057C13.3639 6.93057 13.0931 6.80557 12.8848 6.55557C12.6764 6.30557 12.6223 6.03891 12.7223 5.75557C12.9556 5.05557 13.3764 4.49307 13.9848 4.06807C14.5931 3.64307 15.2723 3.43057 16.0223 3.43057C16.9889 3.43057 17.8139 3.77224 18.4973 4.45557C19.1806 5.13891 19.5223 5.96391 19.5223 6.93057C19.5223 7.89724 19.1806 8.72224 18.4973 9.40557C17.8139 10.0889 16.9889 10.4306 16.0223 10.4306H3.52228ZM20.4723 18.1306C20.1389 18.2806 19.8139 18.2597 19.4973 18.0681C19.1806 17.8764 19.0223 17.5972 19.0223 17.2306C19.0223 16.9972 19.1014 16.8014 19.2598 16.6431C19.4181 16.4847 19.5973 16.3472 19.7973 16.2306C20.0306 16.0972 20.2098 15.9139 20.3348 15.6806C20.4598 15.4472 20.5223 15.1972 20.5223 14.9306C20.5223 14.5139 20.3764 14.1597 20.0848 13.8681C19.7931 13.5764 19.4389 13.4306 19.0223 13.4306H3.52228C3.23894 13.4306 3.00144 13.3347 2.80978 13.1431C2.61811 12.9514 2.52228 12.7139 2.52228 12.4306C2.52228 12.1472 2.61811 11.9097 2.80978 11.7181C3.00144 11.5264 3.23894 11.4306 3.52228 11.4306H19.0223C19.9889 11.4306 20.8139 11.7722 21.4973 12.4556C22.1806 13.1389 22.5223 13.9639 22.5223 14.9306C22.5223 15.6306 22.3389 16.2681 21.9723 16.8431C21.6056 17.4181 21.1056 17.8472 20.4723 18.1306Z" fill="#28161C"/>
</svg>
